<?xml version="1.0" encoding="UTF-8" standalone="no"?>
<!-- Created with Inkscape (http://www.inkscape.org/) -->

<svg
   xmlns:dc="http://purl.org/dc/elements/1.1/"
   xmlns:cc="http://creativecommons.org/ns#"
   xmlns:rdf="http://www.w3.org/1999/02/22-rdf-syntax-ns#"
   xmlns:svg="http://www.w3.org/2000/svg"
   xmlns="http://www.w3.org/2000/svg"
   xmlns:sodipodi="http://sodipodi.sourceforge.net/DTD/sodipodi-0.dtd"
   xmlns:inkscape="http://www.inkscape.org/namespaces/inkscape"
   width="210mm"
   height="297mm"
   id="svg2"
   version="1.1"
   inkscape:version="0.48.5 r10040"
   sodipodi:docname="Nouveau document 1">
  <defs
     id="defs4" />
  <sodipodi:namedview
     id="base"
     pagecolor="#ffffff"
     bordercolor="#666666"
     borderopacity="1.0"
     inkscape:pageopacity="0.0"
     inkscape:pageshadow="2"
     inkscape:zoom="0.98994949"
     inkscape:cx="7.6578759"
     inkscape:cy="520"
     inkscape:document-units="px"
     inkscape:current-layer="g4067"
     showgrid="false"
     inkscape:window-width="1920"
     inkscape:window-height="1017"
     inkscape:window-x="-8"
     inkscape:window-y="-8"
     inkscape:window-maximized="1" />
  <metadata
     id="metadata7">
    <rdf:RDF>
      <cc:Work
         rdf:about="">
        <dc:format>image/svg+xml</dc:format>
        <dc:type
           rdf:resource="http://purl.org/dc/dcmitype/StillImage" />
        <dc:title></dc:title>
      </cc:Work>
    </rdf:RDF>
  </metadata>
  <g
     inkscape:label="Calque 1"
     inkscape:groupmode="layer"
     id="layer1">
    <g
       id="g4067"
       transform="translate(-21.714287,11.79075)">
      <g
         id="Layer_18">
	<rect
   id="rect3823"
   height="1024"
   width="768"
   x="12"
   y="0"
   style="opacity:0.5" />

</g>
      <g
         display="none"
         id="Layer_5"
         style="display:none">
	<path
   id="path3826"
   d="M 743.615,388.096 C 743.615,581.344 586.963,738 393.712,738 200.464,738 43.808,581.344 43.808,388.096 c 0,-193.247 156.657,-349.904 349.904,-349.904 193.251,0 349.903,156.657 349.903,349.904 z"
   display="inline"
   inkscape:connector-curvature="0"
   style="fill:#ffb800;display:inline" />

	<circle
   id="circle3828"
   r="332.95099"
   cy="386.00201"
   cx="400.00101"
   display="inline"
   sodipodi:cx="400.00101"
   sodipodi:cy="386.00201"
   sodipodi:rx="332.95099"
   sodipodi:ry="332.95099"
   style="opacity:0.5;display:inline"
   d="m 732.952,386.00201 c 0,183.88376 -149.06724,332.95099 -332.95099,332.95099 -183.88376,0 -332.950992,-149.06723 -332.950992,-332.95099 0,-183.88375 149.067232,-332.950985 332.950992,-332.950985 183.88375,0 332.95099,149.067235 332.95099,332.950985 z" />

	<path
   id="path3830"
   d="M 397.682,385.922 476.995,59.417 C 296.67,15.614 114.979,126.287 71.176,306.61 27.373,486.934 138.045,668.624 318.369,712.428 466.273,748.355 615.098,680.358 688,555.243 L 397.682,385.922 z"
   display="inline"
   inkscape:connector-curvature="0"
   style="fill:#ffb800;display:inline" />

	<circle
   id="circle3832"
   r="205.90401"
   cy="381.621"
   cx="395.621"
   sodipodi:cx="395.621"
   sodipodi:cy="381.621"
   sodipodi:rx="205.90401"
   sodipodi:ry="205.90401"
   style="fill:#d00030"
   d="m 601.52501,381.621 c 0,113.71765 -92.18636,205.90401 -205.90401,205.90401 -113.71764,0 -205.904,-92.18636 -205.904,-205.90401 0,-113.71764 92.18636,-205.904 205.904,-205.904 113.71765,0 205.90401,92.18636 205.90401,205.904 z" />

	<circle
   id="circle3834"
   r="205.90401"
   cy="381.621"
   cx="395.621"
   display="inline"
   sodipodi:cx="395.621"
   sodipodi:cy="381.621"
   sodipodi:rx="205.90401"
   sodipodi:ry="205.90401"
   style="fill:#ffb800;display:inline"
   d="m 601.52501,381.621 c 0,113.71765 -92.18636,205.90401 -205.90401,205.90401 -113.71764,0 -205.904,-92.18636 -205.904,-205.90401 0,-113.71764 92.18636,-205.904 205.904,-205.904 113.71765,0 205.90401,92.18636 205.90401,205.904 z" />

	<path
   id="path3836"
   d="M 608,388.096 C 608,501.814 515.816,594 402.096,594 288.379,594 196.193,501.814 196.193,388.096 196.193,274.379 288.379,182.193 402.096,182.193 515.816,182.192 608,274.378 608,388.096 z"
   inkscape:connector-curvature="0"
   style="fill:#0080ff" />

	<circle
   id="circle3838"
   r="205.90401"
   cy="381.621"
   cx="395.621"
   sodipodi:cx="395.621"
   sodipodi:cy="381.621"
   sodipodi:rx="205.90401"
   sodipodi:ry="205.90401"
   style="fill:#80b800"
   d="m 601.52501,381.621 c 0,113.71765 -92.18636,205.90401 -205.90401,205.90401 -113.71764,0 -205.904,-92.18636 -205.904,-205.90401 0,-113.71764 92.18636,-205.904 205.904,-205.904 113.71765,0 205.90401,92.18636 205.90401,205.904 z" />

	<circle
   id="circle3840"
   r="205.90401"
   cy="381.621"
   cx="395.621"
   sodipodi:cx="395.621"
   sodipodi:cy="381.621"
   sodipodi:rx="205.90401"
   sodipodi:ry="205.90401"
   style="fill:#5000a0"
   d="m 601.52501,381.621 c 0,113.71765 -92.18636,205.90401 -205.90401,205.90401 -113.71764,0 -205.904,-92.18636 -205.904,-205.90401 0,-113.71764 92.18636,-205.904 205.904,-205.904 113.71765,0 205.90401,92.18636 205.90401,205.904 z" />

	<circle
   id="circle3842"
   r="191.666"
   cy="386.00201"
   cx="400.00101"
   display="inline"
   sodipodi:cx="400.00101"
   sodipodi:cy="386.00201"
   sodipodi:rx="191.666"
   sodipodi:ry="191.666"
   style="opacity:0.5;fill:#ffffff;display:inline"
   d="m 591.66701,386.00201 c 0,105.85421 -85.81179,191.666 -191.666,191.666 -105.85421,0 -191.666,-85.81179 -191.666,-191.666 0,-105.8542 85.81179,-191.666 191.666,-191.666 105.85421,0 191.666,85.8118 191.666,191.666 z" />

	<path
   id="path3844"
   d="m 529.593,475.893 c -28.482,40.985 -75.899,67.822 -129.591,67.822 -53.693,0 -101.11,-26.838 -129.593,-67.823 -22.535,-12.426 -43.065,-27.981 -60.978,-46.081 35.1,86.095 107.229,145.194 190.571,145.194 83.346,0 155.471,-59.099 190.57,-145.194 -17.912,18.1 -38.442,33.655 -60.979,46.082 z"
   display="inline"
   inkscape:connector-curvature="0"
   style="opacity:0.3;fill:#5000a0;display:inline" />

	<path
   id="path3846"
   d="m 612.866,331.929 c 0.816,3.192 1.591,6.401 2.261,9.65 -0.67,-3.246 -1.434,-6.457 -2.261,-9.65 z M 404.383,175.717 c -92.795,0 -177.476,74.158 -208.352,155.738 0.109,-0.392 0.22,-0.782 0.326,-1.176 -0.012,-0.045 -0.029,-0.089 -0.041,-0.134 -0.129,0.483 -0.228,0.976 -0.342,1.463 -2.422,6.415 -4.522,12.874 -6.256,19.346 0,30.546 44.495,60.367 55.927,67.525 -2.195,-10.482 -3.355,-21.344 -3.355,-32.477 0,-87.103 70.611,-157.714 157.714,-157.714 87.103,0 157.713,70.611 157.713,157.714 0,11.709 -1.286,23.116 -3.708,34.098 0,0 56.279,-34.098 56.279,-69.146 C 586.475,262.092 504.528,175.717 404.383,175.717 z M 612.41,330.279 c 0.146,0.553 0.316,1.097 0.456,1.65 -0.152,-0.589 -0.257,-1.195 -0.419,-1.784 -0.013,0.045 -0.023,0.089 -0.037,0.134 z"
   display="inline"
   inkscape:connector-curvature="0"
   style="opacity:0.5;fill:#ffffff;display:inline" />

</g>
      <g
         display="none"
         id="Layer_1"
         style="display:none">
	<g
   id="g3849"
   display="inline"
   style="display:inline">
		<g
   id="g3851">
			<path
   id="path3853"
   d="M 495.207,30.591 C 298.93,-21.999 97.184,94.48 44.593,290.756 -8,487.03 108.479,688.779 304.756,741.372 501.029,793.965 702.778,677.485 755.371,481.206 807.964,284.93 691.485,83.185 495.207,30.591 z M 716.101,446.88 626.949,422.993 C 644.649,315.265 583.557,209.456 481.414,170.917 L 505.3,81.765 C 656.424,133.91 746.499,289.931 716.101,446.88 z M 352.368,563.677 C 254.226,537.378 195.989,436.509 222.285,338.369 248.582,240.227 349.453,181.99 447.593,208.287 545.732,234.583 603.97,335.455 577.675,433.595 551.377,531.734 450.509,589.971 352.368,563.677 z M 460.876,69.861 436.986,159.013 C 329.26,141.318 223.454,202.407 184.916,304.548 L 95.764,280.659 C 147.912,129.539 303.929,39.462 460.876,69.861 z m -377.015,255.222 89.151,23.888 c -17.696,107.726 43.393,213.535 145.534,252.073 l -23.888,89.153 C 143.538,638.049 53.463,482.032 83.861,325.083 z M 339.082,702.102 362.97,612.95 c 107.725,17.699 213.534,-43.391 252.074,-145.532 l 89.153,23.887 C 652.048,642.425 496.03,732.499 339.082,702.102 z"
   inkscape:connector-curvature="0" />

		</g>

	</g>

</g>
      <g
         display="none"
         id="Layer_6"
         style="display:none">
	<polygon
   id="polygon3856"
   points="63,260 63,296 90,278 "
   style="fill:#ffffff" />

	<rect
   id="rect3858"
   height="36"
   width="8"
   display="inline"
   y="260"
   x="60"
   style="fill:#ffffff;display:inline" />

	<rect
   id="rect3860"
   height="36"
   width="8"
   display="inline"
   y="260"
   x="76"
   style="fill:#ffffff;display:inline" />

</g>
      <g
         id="Layer_2">
	<path
   id="path3863"
   d="M 752,178.761 C 752,187.177 745.178,194 736.762,194 H 607.238 C 598.822,194 592,187.177 592,178.761 V 49.239 C 592,40.823 598.822,34 607.238,34 H 736.761 C 745.178,34 752,40.823 752,49.239 v 129.522 z"
   inkscape:connector-curvature="0"
   style="fill:#231f20" />

	<path
   id="path3865"
   d="M 742,170.667 C 742,178.03 736.029,184 728.666,184 H 615.334 C 607.971,184 602,178.03 602,170.667 V 57.333 C 602,49.97 607.971,44 615.334,44 H 728.666 C 736.029,44 742,49.97 742,57.333 v 113.334 z"
   inkscape:connector-curvature="0"
   style="fill:#ffb800" />

	<path
   id="path3867"
   d="M 728.666,44 H 615.334 C 607.971,44 602,49.97 602,57.333 v 25.398 c 2.819,5.084 6.183,9.823 10,14.152 V 65.429 C 612,59.117 617.117,54 623.43,54 h 97.141 c 6.313,0 11.43,5.117 11.43,11.429 v 31.455 c 3.817,-4.329 7.181,-9.067 10,-14.152 V 57.333 C 742,49.97 736.029,44 728.666,44 z"
   inkscape:connector-curvature="0"
   style="opacity:0.5;fill:#ffffff" />

	<path
   id="path3869"
   d="m 732,136.883 v 25.688 C 732,168.883 726.883,174 720.57,174 H 623.43 C 617.117,174 612,168.883 612,162.571 v -25.688 c -3.817,-4.329 -7.181,-9.067 -10,-14.152 v 47.936 C 602,178.03 607.971,184 615.334,184 H 728.666 C 736.029,184 742,178.03 742,170.667 v -47.936 c -2.819,5.085 -6.183,9.824 -10,14.152 z"
   inkscape:connector-curvature="0"
   style="opacity:0.3;fill:#400060" />

	<path
   id="path3871"
   d="M 742,170.667 C 742,178.03 736.029,184 728.666,184 H 615.334 C 607.971,184 602,178.03 602,170.667 V 57.333 C 602,49.97 607.971,44 615.334,44 H 728.666 C 736.029,44 742,49.97 742,57.333 v 113.334 z"
   inkscape:connector-curvature="0"
   style="opacity:0.5;fill:#ffffff" />

	<path
   id="path3873"
   d="M 368,585.618 C 368,599.083 357.084,610 343.618,610 H 136.382 C 122.916,610 112,599.083 112,585.618 V 378.382 C 112,364.917 122.916,354 136.382,354 H 343.618 C 357.084,354 368,364.917 368,378.382 v 207.236 z"
   inkscape:connector-curvature="0"
   style="fill:#231f20" />

	<path
   id="path3875"
   d="M 352,572.667 C 352,584.448 342.447,594 330.666,594 H 149.334 C 137.553,594 128,584.448 128,572.667 V 391.333 C 128,379.552 137.553,370 149.334,370 h 181.332 c 11.781,0 21.334,9.552 21.334,21.333 v 181.334 z"
   inkscape:connector-curvature="0"
   style="fill:#ffb800" />

	<path
   id="path3877"
   d="M 330.666,370 H 149.334 C 137.553,370 128,379.552 128,391.333 v 40.638 c 4.511,8.135 9.893,15.716 16,22.643 v -50.327 c 0,-10.099 8.188,-18.286 18.287,-18.286 h 155.426 c 10.1,0 18.287,8.188 18.287,18.286 v 50.327 c 6.107,-6.926 11.489,-14.508 16,-22.643 V 391.333 C 352,379.552 342.447,370 330.666,370 z"
   inkscape:connector-curvature="0"
   style="opacity:0.5;fill:#ffffff" />

	<path
   id="path3879"
   d="m 336,518.613 v 41.101 C 336,569.813 327.812,578 317.713,578 H 162.287 C 152.187,578 144,569.812 144,559.714 v -41.101 c -6.107,-6.926 -11.489,-14.508 -16,-22.643 v 76.696 c 0,11.781 9.553,21.333 21.334,21.333 h 181.332 c 11.781,0 21.334,-9.552 21.334,-21.333 V 495.97 c -4.511,8.135 -9.893,15.717 -16,22.643 z"
   inkscape:connector-curvature="0"
   style="opacity:0.3;fill:#400060" />

	<rect
   id="rect3881"
   height="192"
   width="64"
   y="50"
   x="80"
   style="fill:#ffffff" />

	<rect
   id="rect3883"
   height="192"
   width="64"
   y="50"
   x="176"
   style="fill:#ffffff" />

	<polygon
   id="polygon3885"
   points="640,66 640,162 720,114 "
   style="fill:#ffffff" />

	
	<path
   id="path3889"
   d="M 688,585.618 C 688,599.083 677.084,610 663.618,610 H 456.382 C 442.916,610 432,599.083 432,585.618 V 378.382 C 432,364.917 442.916,354 456.382,354 H 663.618 C 677.084,354 688,364.917 688,378.382 v 207.236 z"
   inkscape:connector-curvature="0"
   style="fill:#231f20" />

	<path
   id="path3891"
   d="M 672,572.667 C 672,584.448 662.447,594 650.666,594 H 469.334 C 457.553,594 448,584.448 448,572.667 V 391.333 C 448,379.552 457.553,370 469.334,370 h 181.332 c 11.781,0 21.334,9.552 21.334,21.333 v 181.334 z"
   inkscape:connector-curvature="0"
   style="fill:#ffb800" />

	<path
   id="path3893"
   d="M 650.666,370 H 469.334 C 457.553,370 448,379.552 448,391.333 v 40.638 c 4.511,8.135 9.893,15.716 16,22.643 v -50.327 c 0,-10.099 8.188,-18.286 18.287,-18.286 h 155.426 c 10.1,0 18.287,8.188 18.287,18.286 v 50.327 c 6.107,-6.926 11.489,-14.508 16,-22.643 V 391.333 C 672,379.552 662.447,370 650.666,370 z"
   inkscape:connector-curvature="0"
   style="opacity:0.5;fill:#ffffff" />

	<path
   id="path3895"
   d="m 656,518.613 v 41.101 C 656,569.813 647.812,578 637.713,578 H 482.287 C 472.187,578 464,569.812 464,559.714 v -41.101 c -6.107,-6.926 -11.489,-14.508 -16,-22.643 v 76.696 c 0,11.781 9.553,21.333 21.334,21.333 h 181.332 c 11.781,0 21.334,-9.552 21.334,-21.333 V 495.97 c -4.511,8.135 -9.893,15.717 -16,22.643 z"
   inkscape:connector-curvature="0"
   style="opacity:0.3;fill:#400060" />

	<path
   id="path3897"
   d="M 672,572.667 C 672,584.448 662.447,594 650.666,594 H 469.334 C 457.553,594 448,584.448 448,572.667 V 391.333 C 448,379.552 457.553,370 469.334,370 h 181.332 c 11.781,0 21.334,9.552 21.334,21.333 v 181.334 z"
   inkscape:connector-curvature="0"
   style="opacity:0.5;fill:#ffffff" />

	<path
   id="path3899"
   d="M 688,905.618 C 688,919.083 677.084,930 663.618,930 H 456.382 C 442.916,930 432,919.083 432,905.618 V 698.382 C 432,684.917 442.916,674 456.382,674 H 663.618 C 677.084,674 688,684.917 688,698.382 v 207.236 z"
   inkscape:connector-curvature="0"
   style="fill:#231f20" />

	<path
   id="path3901"
   d="M 672,892.667 C 672,904.448 662.447,914 650.666,914 H 469.334 C 457.553,914 448,904.448 448,892.667 V 711.333 C 448,699.552 457.553,690 469.334,690 h 181.332 c 11.781,0 21.334,9.552 21.334,21.333 v 181.334 z"
   inkscape:connector-curvature="0"
   style="fill:#ffb800" />

	<path
   id="path3903"
   d="M 650.666,690 H 469.334 C 457.553,690 448,699.552 448,711.333 v 40.638 c 4.511,8.135 9.893,15.717 16,22.643 v -50.327 c 0,-10.099 8.188,-18.286 18.287,-18.286 h 155.426 c 10.1,0 18.287,8.188 18.287,18.286 v 50.327 c 6.107,-6.926 11.489,-14.508 16,-22.643 V 711.333 C 672,699.552 662.447,690 650.666,690 z"
   inkscape:connector-curvature="0"
   style="opacity:0.5;fill:#ffffff" />

	<path
   id="path3905"
   d="m 656,838.613 v 41.101 C 656,889.813 647.812,898 637.713,898 H 482.287 C 472.187,898 464,889.812 464,879.714 v -41.101 c -6.107,-6.926 -11.489,-14.508 -16,-22.643 v 76.696 c 0,11.781 9.553,21.333 21.334,21.333 h 181.332 c 11.781,0 21.334,-9.552 21.334,-21.333 V 815.97 c -4.511,8.135 -9.893,15.718 -16,22.643 z"
   inkscape:connector-curvature="0"
   style="opacity:0.3;fill:#400060" />

	<path
   id="path3907"
   d="M 672,892.667 C 672,904.448 662.447,914 650.666,914 H 469.334 C 457.553,914 448,904.448 448,892.667 V 711.333 C 448,699.552 457.553,690 469.334,690 h 181.332 c 11.781,0 21.334,9.552 21.334,21.333 v 181.334 z"
   inkscape:connector-curvature="0"
   style="opacity:0.5;fill:#ffffff" />

	<path
   id="path3909"
   d="M 368,905.618 C 368,919.083 357.084,930 343.618,930 H 136.382 C 122.916,930 112,919.083 112,905.618 V 698.382 C 112,684.917 122.916,674 136.382,674 H 343.618 C 357.084,674 368,684.917 368,698.382 v 207.236 z"
   inkscape:connector-curvature="0"
   style="fill:#231f20" />

	<path
   id="path3911"
   d="M 352,892.667 C 352,904.448 342.447,914 330.666,914 H 149.334 C 137.553,914 128,904.448 128,892.667 V 711.333 C 128,699.552 137.553,690 149.334,690 h 181.332 c 11.781,0 21.334,9.552 21.334,21.333 v 181.334 z"
   inkscape:connector-curvature="0"
   style="fill:#ffb800" />

	<path
   id="path3913"
   d="M 330.666,690 H 149.334 C 137.553,690 128,699.552 128,711.333 v 40.638 c 4.511,8.135 9.893,15.717 16,22.643 v -50.327 c 0,-10.099 8.188,-18.286 18.287,-18.286 h 155.426 c 10.1,0 18.287,8.188 18.287,18.286 v 50.327 c 6.107,-6.926 11.489,-14.508 16,-22.643 V 711.333 C 352,699.552 342.447,690 330.666,690 z"
   inkscape:connector-curvature="0"
   style="opacity:0.5;fill:#ffffff" />

	<path
   id="path3915"
   d="m 336,838.613 v 41.101 C 336,889.813 327.812,898 317.713,898 H 162.287 C 152.187,898 144,889.812 144,879.714 v -41.101 c -6.107,-6.926 -11.489,-14.508 -16,-22.643 v 76.696 c 0,11.781 9.553,21.333 21.334,21.333 h 181.332 c 11.781,0 21.334,-9.552 21.334,-21.333 V 815.97 c -4.511,8.135 -9.893,15.718 -16,22.643 z"
   inkscape:connector-curvature="0"
   style="opacity:0.3;fill:#400060" />

	<path
   id="path3917"
   d="M 352,892.667 C 352,904.448 342.447,914 330.666,914 H 149.334 C 137.553,914 128,904.448 128,892.667 V 711.333 C 128,699.552 137.553,690 149.334,690 h 181.332 c 11.781,0 21.334,9.552 21.334,21.333 v 181.334 z"
   inkscape:connector-curvature="0"
   style="opacity:0.5;fill:#ffffff" />

</g>
      <g
         display="none"
         id="Layer_4"
         style="display:none">
	<path
   id="path3920"
   d="m 207,329 c 0,6.627 -5.373,12 -12,12 H 21 C 14.373,341 9,335.627 9,329 V 227 c 0,-6.627 5.373,-12 12,-12 h 174 c 6.627,0 12,5.373 12,12 v 102 z"
   inkscape:connector-curvature="0"
   style="fill:#ffb800" />

	<path
   id="path3922"
   d="m 207,329 c 0,6.627 -5.373,12 -12,12 H 21 C 14.373,341 9,335.627 9,329 V 227 c 0,-6.627 5.373,-12 12,-12 h 174 c 6.627,0 12,5.373 12,12 v 102 z"
   display="inline"
   inkscape:connector-curvature="0"
   style="fill:#d00030;display:inline" />

	<path
   id="path3924"
   d="m 207,329 c 0,6.627 -5.373,12 -12,12 H 21 C 14.373,341 9,335.627 9,329 V 227 c 0,-6.627 5.373,-12 12,-12 h 174 c 6.627,0 12,5.373 12,12 v 102 z"
   inkscape:connector-curvature="0"
   style="fill:#0080ff" />

	<path
   id="path3926"
   d="m 207,329 c 0,6.627 -5.373,12 -12,12 H 21 C 14.373,341 9,335.627 9,329 V 227 c 0,-6.627 5.373,-12 12,-12 h 174 c 6.627,0 12,5.373 12,12 v 102 z"
   inkscape:connector-curvature="0"
   style="fill:#80b800" />

	<path
   id="path3928"
   d="m 207,329 c 0,6.627 -5.373,12 -12,12 H 21 C 14.373,341 9,335.627 9,329 V 227 c 0,-6.627 5.373,-12 12,-12 h 174 c 6.627,0 12,5.373 12,12 v 102 z"
   inkscape:connector-curvature="0"
   style="fill:#5000a0" />

	<path
   id="path3930"
   d="m 207,329 c 0,6.627 -5.373,12 -12,12 H 21 C 14.373,341 9,335.627 9,329 V 227 c 0,-6.627 5.373,-12 12,-12 h 174 c 6.627,0 12,5.373 12,12 v 102 z"
   inkscape:connector-curvature="0"
   style="fill:#808080" />

	<path
   id="path3932"
   d="m 207,329 c 0,6.627 -5.373,12 -12,12 H 21 C 14.373,341 9,335.627 9,329 V 227 c 0,-6.627 5.373,-12 12,-12 h 174 c 6.627,0 12,5.373 12,12 v 102 z"
   inkscape:connector-curvature="0"
   style="opacity:0.5;fill:#ffffff" />

</g>
      <g
         display="none"
         id="Layer_3"
         style="display:none">
	<path
   id="path3935"
   d="M 202.285,206 H 13.715 C 6.141,206 0,212.141 0,219.715 v 116.57 C 0,343.859 6.141,350 13.715,350 h 188.57 C 209.859,350 216,343.859 216,336.285 V 219.715 C 216,212.141 209.859,206 202.285,206 z M 207,329 c 0,6.627 -5.373,12 -12,12 H 21 C 14.373,341 9,335.627 9,329 V 227 c 0,-6.627 5.373,-12 12,-12 h 174 c 6.627,0 12,5.373 12,12 v 102 z"
   display="inline"
   inkscape:connector-curvature="0"
   style="fill:#231f20;display:inline" />

	<path
   id="path3937"
   d="M 195,215 H 21 c -6.627,0 -12,5.373 -12,12 v 22.858 c 1.932,3.484 5.037,6.791 9,9.89 V 234.286 C 18,228.605 22.605,224 28.286,224 h 159.428 c 5.681,0 10.286,4.605 10.286,10.286 v 25.462 c 3.963,-3.1 7.068,-6.406 9,-9.89 V 227 c 0,-6.627 -5.373,-12 -12,-12 z"
   display="inline"
   inkscape:connector-curvature="0"
   style="opacity:0.5;fill:#ffffff;display:inline" />

	<path
   id="path3939"
   d="m 198,295.749 v 25.965 C 198,327.395 193.395,332 187.714,332 H 28.286 C 22.605,332 18,327.395 18,321.714 v -25.965 c -3.963,-3.1 -7.068,-6.406 -9,-9.89 V 329 c 0,6.627 5.373,12 12,12 h 174 c 6.627,0 12,-5.373 12,-12 v -43.142 c -1.932,3.484 -5.037,6.791 -9,9.891 z"
   display="inline"
   inkscape:connector-curvature="0"
   style="opacity:0.3;fill:#400060;display:inline" />

</g>
      <g
         display="none"
         id="Layer_7"
         style="display:none">
	<path
   id="path3942"
   d="m 135,329 c 0,6.627 -5.373,12 -12,12 H 21 C 14.373,341 9,335.627 9,329 V 227 c 0,-6.627 5.373,-12 12,-12 h 102 c 6.627,0 12,5.373 12,12 v 102 z"
   display="inline"
   inkscape:connector-curvature="0"
   style="fill:#ffb800;display:inline" />

	<path
   id="path3944"
   d="m 135,329 c 0,6.627 -5.373,12 -12,12 H 21 C 14.373,341 9,335.627 9,329 V 227 c 0,-6.627 5.373,-12 12,-12 h 102 c 6.627,0 12,5.373 12,12 v 102 z"
   inkscape:connector-curvature="0"
   style="fill:#d00030" />

	<path
   id="path3946"
   d="m 135,329 c 0,6.627 -5.373,12 -12,12 H 21 C 14.373,341 9,335.627 9,329 V 227 c 0,-6.627 5.373,-12 12,-12 h 102 c 6.627,0 12,5.373 12,12 v 102 z"
   inkscape:connector-curvature="0"
   style="fill:#0080ff" />

	<path
   id="path3948"
   d="m 135,329 c 0,6.627 -5.373,12 -12,12 H 21 C 14.373,341 9,335.627 9,329 V 227 c 0,-6.627 5.373,-12 12,-12 h 102 c 6.627,0 12,5.373 12,12 v 102 z"
   inkscape:connector-curvature="0"
   style="fill:#80b800" />

	<path
   id="path3950"
   d="m 135,329 c 0,6.627 -5.373,12 -12,12 H 21 C 14.373,341 9,335.627 9,329 V 227 c 0,-6.627 5.373,-12 12,-12 h 102 c 6.627,0 12,5.373 12,12 v 102 z"
   inkscape:connector-curvature="0"
   style="fill:#5000a0" />

	<path
   id="path3952"
   d="m 207,329 c 0,6.627 -5.373,12 -12,12 H 21 C 14.373,341 9,335.627 9,329 V 227 c 0,-6.627 5.373,-12 12,-12 h 174 c 6.627,0 12,5.373 12,12 v 102 z"
   inkscape:connector-curvature="0"
   style="opacity:0.5;fill:#ffffff" />

</g>
      <g
         display="none"
         id="Layer_8"
         style="display:none">
	<g
   id="g3955"
   display="inline"
   style="display:inline">
		<path
   id="path3957"
   d="m 75.481,245.48 c -4.641,4.641 -4.641,12.165 0,16.806 l 50.417,50.417 c 4.641,4.641 12.165,4.641 16.806,0 4.641,-4.641 4.641,-12.165 0,-16.806 L 92.287,245.48 c -4.641,-4.64 -12.165,-4.64 -16.806,0 z"
   inkscape:connector-curvature="0"
   style="fill:#ffffff" />

		<path
   id="path3959"
   d="m 75.481,312.703 c 4.641,4.641 12.165,4.641 16.806,0 l 50.417,-50.417 c 4.641,-4.641 4.641,-12.165 0,-16.806 -4.641,-4.641 -12.165,-4.641 -16.806,0 l -50.417,50.417 c -4.641,4.641 -4.641,12.165 0,16.806 z"
   inkscape:connector-curvature="0"
   style="fill:#ffffff" />

	</g>

</g>
      <g
         display="none"
         id="Layer_9"
         style="display:none">
	<path
   id="path3962"
   d="M 108,242 H 72 v 18 h 36 c 9.941,0 18,8.059 18,18 0,9.941 -8.059,18 -18,18 h -9 v -9 l -27,27 h 36 c 19.882,0 36,-16.118 36,-36 0,-19.882 -16.118,-36 -36,-36 z"
   display="inline"
   inkscape:connector-curvature="0"
   style="fill:#ffffff;display:inline" />

</g>
      <g
         display="none"
         id="Layer_10"
         style="display:none">
	<path
   id="path3965"
   d="m 135,206 v 36 c 0,14.912 -12.088,27 -27,27 -14.912,0 -27,-12.088 -27,-27 v -36 h -9 v 36 c 0,19.882 16.118,36 36,36 19.882,0 36,-16.118 36,-36 v -36 h -9 z"
   display="inline"
   inkscape:connector-curvature="0"
   style="fill:#231f20;display:inline" />

	<path
   id="path3967"
   d="m 81,341 v -36 c 0,-14.912 12.088,-27 27,-27 14.912,0 27,12.088 27,27 v 36 h 9 v -36 c 0,-19.882 -16.118,-36 -36,-36 -19.882,0 -36,16.118 -36,36 v 36 h 9 z"
   display="inline"
   inkscape:connector-curvature="0"
   style="fill:#231f20;display:inline" />

	<rect
   id="rect3969"
   height="36"
   width="36.25"
   display="inline"
   y="206"
   x="90"
   style="fill:#231f20;display:inline" />

	<circle
   id="circle3971"
   r="18"
   cy="242"
   cx="108"
   display="inline"
   sodipodi:cx="108"
   sodipodi:cy="242"
   sodipodi:rx="18"
   sodipodi:ry="18"
   style="fill:#231f20;display:inline"
   d="m 126,242 c 0,9.94113 -8.05887,18 -18,18 -9.941125,0 -18,-8.05887 -18,-18 0,-9.94113 8.058875,-18 18,-18 9.94113,0 18,8.05887 18,18 z" />

	<rect
   id="rect3973"
   height="9"
   width="19.25"
   display="inline"
   y="206"
   x="61.75"
   style="fill:#231f20;display:inline" />

	<rect
   id="rect3975"
   height="9"
   width="18"
   display="inline"
   y="206"
   x="135"
   style="fill:#231f20;display:inline" />

	<rect
   id="rect3977"
   height="9"
   width="18"
   display="inline"
   y="332"
   x="63"
   style="fill:#231f20;display:inline" />

	<rect
   id="rect3979"
   height="9"
   width="18"
   display="inline"
   y="332"
   x="135"
   style="fill:#231f20;display:inline" />

</g>
      <g
         display="none"
         id="Layer_11"
         style="display:none">
	<g
   id="g3982"
   display="inline"
   style="display:inline">
		<path
   id="path3984"
   d="M 164.978,85.2 V 34 h -12.8 v 51.2 c 0,21.208 -17.192,38.4 -38.4,38.4 -21.208,0 -38.4,-17.192 -38.4,-38.4 V 34 h -12.8 v 51.2 c 0,19.282 10.664,36.068 26.412,44.8 -15.748,8.732 -26.412,25.518 -26.412,44.8 V 226 h 12.8 v -51.2 c 0,-21.208 17.192,-38.4 38.4,-38.4 21.208,0 38.4,17.192 38.4,38.4 V 226 h 12.8 v -51.2 c 0,-19.282 -10.664,-36.068 -26.412,-44.8 15.748,-8.732 26.412,-25.518 26.412,-44.8 z"
   inkscape:connector-curvature="0"
   style="fill:#ffffff" />

		<rect
   id="rect3986"
   height="12.8"
   width="51.556"
   y="72.400002"
   x="88.178001"
   style="fill:#ffffff" />

		<path
   id="path3988"
   d="m 139.378,85.2 c 0,14.139 -11.462,25.6 -25.6,25.6 -14.138,0 -25.6,-11.461 -25.6,-25.6 h 51.2 z"
   inkscape:connector-curvature="0"
   style="fill:#ffffff" />

		<rect
   id="rect3990"
   height="12.8"
   width="27.378"
   y="34"
   x="48"
   style="fill:#ffffff" />

		<rect
   id="rect3992"
   height="12.8"
   width="25.6"
   y="34"
   x="152.17799"
   style="fill:#ffffff" />

		<rect
   id="rect3994"
   height="12.8"
   width="25.6"
   y="213.2"
   x="49.778"
   style="fill:#ffffff" />

		<rect
   id="rect3996"
   height="12.8"
   width="25.6"
   y="213.2"
   x="152.17799"
   style="fill:#ffffff" />

		<path
   id="path3998"
   d="m 113.778,174.8 c 0,14.138 -11.462,25.6 -25.6,25.6 V 226 h 51.2 v -25.6 c -14.138,0 -25.6,-11.462 -25.6,-25.6 z"
   inkscape:connector-curvature="0"
   style="fill:#ffffff" />

	</g>

</g>
      <g
         id="eliminated"
         transform="translate(-6.0609115,3.0304549)">
	<g
   id="g4001">
		<path
   id="path4003"
   d="m 271.495,468.641 35.034,18.638 v -18.638 h -35.034 z m -49.108,23.376 -29.713,59.428 h 31.05 l 20.701,-41.402 20.702,41.402 h 31.051 l -13.741,-27.483 -60.05,-31.945 z m 39.262,-28.614 c 8.331,-5.567 13.829,-15.042 13.829,-25.813 0,-17.151 -13.903,-31.052 -31.052,-31.052 -17.148,0 -31.052,13.901 -31.052,31.052 0,0.044 0.005,0.089 0.006,0.134 l 48.269,25.679 z m -79.326,7.299 v 18.64 h 35.036 l -35.036,-18.64 z"
   inkscape:connector-curvature="0"
   style="fill:#ffffff" />

		
			<rect
   id="rect4005"
   height="20.701"
   width="180.24699"
   transform="matrix(0.8828,0.4697,-0.4697,0.8828,253.607,-58.6818)"
   y="468.64099"
   x="154.302"
   style="fill:#ffffff" />

	</g>

</g>
      <g
         display="none"
         id="pause_x5F_resume"
         style="display:none">
	<g
   id="g4008"
   display="inline"
   style="display:inline">
		<polygon
   id="polygon4010"
   points="324,274 324,498 528,386 "
   style="fill:#ffffff" />

	</g>

</g>
      <g
         id="victoly">
	<g
   id="g4013">
		<g
   id="g4015">
			<path
   id="path4017"
   d="m 576.947,404.643 c -41.076,-11.005 -83.297,13.37 -94.305,54.448 -11.005,41.076 13.369,83.297 54.446,94.303 41.075,11.008 83.298,-13.369 94.304,-54.447 11.007,-41.076 -13.369,-83.297 -54.445,-94.304 z m 46.211,87.115 -18.643,-4.995 c 3.703,-22.545 -9.081,-44.687 -30.456,-52.752 l 4.994,-18.643 c 31.624,10.914 50.464,43.547 44.105,76.39 z m -76.105,24.447 c -20.541,-5.503 -32.727,-26.613 -27.221,-47.151 5.502,-20.539 26.611,-32.727 47.15,-27.224 20.537,5.504 32.727,26.615 27.221,47.153 -5.502,20.538 -26.611,32.726 -47.15,27.222 z m 22.703,-103.328 -4.995,18.643 c -22.545,-3.702 -44.687,9.082 -52.749,30.457 l -18.644,-4.995 c 10.912,-31.621 43.544,-50.462 76.388,-44.105 z m -78.879,53.401 18.644,4.995 c -3.704,22.544 9.081,44.688 30.455,52.752 l -4.995,18.643 c -31.624,-10.914 -50.461,-43.547 -44.104,-76.39 z m 53.401,78.88 4.994,-18.643 c 22.545,3.704 44.688,-9.081 52.752,-30.456 l 18.643,4.995 c -10.912,31.623 -43.546,50.462 -76.389,44.104 z"
   inkscape:connector-curvature="0"
   style="fill:#ffffff" />

		</g>

	</g>

</g>
      <g
         id="Layer_15">
	<g
   id="g4020">
		<polygon
   id="polygon4022"
   points="285.258,857.719 188.141,857.719 188.141,882 309.538,882 309.538,724.182 188.141,724.182 188.141,748.463 285.258,748.463 "
   style="fill:#ffffff" />

		<polygon
   id="polygon4024"
   points="176,791.813 176,816.094 214.071,816.094 200.889,829.275 218.059,846.442 260.978,803.522 218.059,760.602 200.889,777.771 214.932,791.813 "
   style="fill:#ffffff" />

	</g>

</g>
      <g
         id="Layer_16">
	<g
   id="g4027">
		<path
   id="path4029"
   d="m 525.44,722 c 0,0 36.959,0 49.279,15.4 12.32,15.4 49.28,15.4 49.28,15.4 v 92.4 c 0,0 -36.96,0 -49.28,-15.399 -12.32,-15.4 -49.279,-15.4 -49.279,-15.4 V 722 z"
   inkscape:connector-curvature="0"
   style="fill:#ffffff" />

		<rect
   id="rect4031"
   height="154"
   width="15.4"
   y="722"
   x="500.79999"
   style="fill:#ffffff" />

	</g>

</g>
      <g
         display="none"
         id="mode_timing"
         style="display:none">
	<path
   id="path4034"
   d="m 237.352,837.314 c -24.863,-24.863 -65.175,-24.863 -90.037,0 -24.864,24.863 -24.864,65.175 0,90.038 C 159.746,939.784 176.04,946 192.333,946 l 10.611,-10.61 -10.611,-10.612 0,0 c -10.862,0 -21.725,-4.144 -30.013,-12.431 -16.575,-16.576 -16.575,-43.45 0,-60.026 16.576,-16.575 43.45,-16.575 60.026,0 16.575,16.576 16.575,43.45 0,60.026 l 1.82,1.82 h 10.611 v 10.61 l 2.574,2.575 c 24.865,-24.863 24.865,-65.174 0.001,-90.038 z"
   display="inline"
   inkscape:connector-curvature="0"
   style="fill:#ffffff;display:inline" />

	<path
   id="path4036"
   d="m 444.088,823.885 -14.693,14.693 -4.897,4.899 -14.693,14.691 -4.899,4.899 -14.692,14.693 -4.898,4.897 4.898,4.898 14.692,14.694 4.899,4.898 14.693,14.691 4.897,4.898 14.693,14.695 4.898,4.897 4.897,-4.897 14.694,-14.695 4.896,-4.898 14.695,-14.691 4.896,-4.898 14.694,-14.694 4.898,-4.898 -4.898,-4.897 -14.694,-14.693 -4.896,-4.899 -14.695,-14.691 -4.896,-4.899 -14.694,-14.693 -4.897,-4.898 -4.898,4.898 z m -14.693,24.488 14.693,14.695 -14.693,14.693 -14.693,-14.693 14.693,-14.695 z m 19.591,19.593 14.693,14.693 -14.693,14.695 -14.694,-14.695 14.694,-14.693 z m -53.877,14.693 14.694,-14.693 14.693,14.693 -14.693,14.695 -14.694,-14.695 z m 19.592,19.593 14.693,-14.694 14.693,14.694 -14.693,14.692 -14.693,-14.692 z m 34.285,34.284 -14.694,-14.694 14.694,-14.691 14.693,14.691 -14.693,14.694 z m 19.592,-19.592 -14.694,-14.692 14.694,-14.694 14.692,14.694 -14.692,14.692 z m 34.284,-34.285 -14.692,14.695 -14.695,-14.695 14.695,-14.693 14.692,14.693 z m -19.591,-19.591 -14.692,14.693 -14.694,-14.693 14.694,-14.695 14.692,14.695 z m -19.591,-19.59 -14.693,14.691 -14.694,-14.691 14.694,-14.694 14.693,14.694 z"
   display="inline"
   inkscape:connector-curvature="0"
   style="fill:#ffffff;display:inline" />

</g>
      <g
         display="none"
         id="Layer_19"
         style="display:none">
	<g
   id="g4039"
   display="inline"
   style="display:inline">
		<path
   id="path4041"
   d="m 290.979,159.327 0,0 0,0 h -19.033 c -3.499,0 -6.739,-0.982 -9.474,-2.579 l 0,0 c -2.812,1.637 -6.079,2.573 -9.57,2.578 l 0,0 -22.216,0.001 c -3.473,-0.002 -6.725,-0.93 -9.525,-2.55 l 0,0 c -2.799,1.619 -6.05,2.544 -9.521,2.549 l 0,0 -44.434,0.001 c -11.379,-0.005 -21.588,-4.991 -28.564,-12.897 l 0,0 c -6.978,7.906 -17.188,12.891 -28.566,12.896 l 0,0 -15.871,0.001 v 6.347 c -0.006,10.523 -8.521,19.036 -19.042,19.045 l 0,0 H 46.596 C 36.076,184.71 27.563,176.198 27.554,165.674 l 0,0 V 38.719 C 27.563,28.196 36.076,19.682 46.596,19.676 l 0,0 h 63.479 v 12.693 12.697 h -57.13 v 114.261 l 15.869,-0.001 V 99.022 C 68.82,88.501 77.335,79.988 87.858,79.98 l 0,0 h 3.173 12.696 c 0.422,0 0.953,-0.009 1.614,-0.009 l 0,0 c 0.976,0.007 2.202,-0.003 3.955,0.247 l 0,0 c 1.716,0.271 4.189,0.788 6.972,2.683 l 0,0 c 1.825,1.24 3.587,3.176 4.671,5.27 l 0,0 c 1.482,2.821 1.83,5.538 1.831,7.679 l 0,0 V 89.501 57.763 c -0.005,-3.549 -1.4,-6.64 -3.718,-8.978 l 0,0 c -2.337,-2.317 -5.431,-3.712 -8.977,-3.719 l 0,0 V 32.369 19.676 c 18.88,0.005 34.538,13.727 37.56,31.746 l 0,0 c 0.174,-0.004 0.351,-0.007 0.526,-0.007 l 0,0 h 44.436 v 12.697 12.693 h -38.086 v 3.175 h 6.347 6.348 l 9.523,-0.002 c 10.52,0.01 19.034,8.523 19.041,19.044 l 0,0 v 15.871 c 0,0.434 0.009,0.965 0.009,1.614 l 0,0 c -0.004,0.977 0.002,2.203 -0.247,3.957 l 0,0 c -0.271,1.717 -0.788,4.188 -2.681,6.968 l 0,0 c -1.241,1.826 -3.176,3.589 -5.271,4.674 l 0,0 c -2.82,1.482 -5.537,1.829 -7.679,1.83 l 0,0 c -1.82,-0.003 -4,-0.245 -6.369,-1.216 l 0,0 c -2.36,-0.936 -4.747,-2.773 -6.251,-4.832 l 0,0 c -1.021,-1.359 -1.692,-2.737 -2.136,-3.945 l 0,0 c -0.59,-1.621 -0.814,-2.953 -0.951,-4.043 l 0,0 c -0.167,-1.456 -0.167,-2.524 -0.17,-3.391 l 0,0 c 0,-0.668 0.009,-1.198 0.008,-1.615 l 0,0 v -3.174 l -3.173,0.001 -6.347,-0.001 v 9.521 c 0.005,3.547 1.401,6.64 3.719,8.978 l 0,0 c 2.336,2.317 5.429,3.712 8.976,3.719 l 0,0 38.087,-10e-4 V 102.198 89.501 c -0.006,-3.548 -1.401,-6.64 -3.719,-8.978 l 0,0 c -2.335,-2.317 -5.43,-3.712 -8.976,-3.718 l 0,0 V 64.111 51.414 c 8.577,0.003 16.488,2.835 22.854,7.617 l 0,0 c 3.473,-4.623 9.001,-7.613 15.234,-7.617 l 0,0 h 19.042 19.044 6.346 v 12.697 12.693 h -6.346 -6.347 c 1.721,0.006 3.765,0.207 6.063,1.075 l 0,0 c 2.277,0.837 4.716,2.545 6.317,4.599 l 0,0 c 1.082,1.352 1.815,2.762 2.294,4 l 0,0 c 0.637,1.666 0.877,3.035 1.023,4.139 l 0,0 c 0.174,1.479 0.172,2.539 0.178,3.396 l 0,0 c 0,0.632 -0.009,1.155 -0.009,1.599 l 0,0 c 0,0.039 0,0.077 0,0.113 l 0,0 c 0,0.041 0,0.083 0,0.123 l 0,0 v 18.009 19.842 0.235 h 9.523 V 89.501 c -0.009,-3.548 -1.404,-6.64 -3.72,-8.978 l 0,0 c -2.337,-2.317 -5.43,-3.712 -8.978,-3.718 l 0,0 V 64.111 51.414 c 6.939,0.003 13.444,1.857 19.044,5.098 l 0,0 v -5.098 c 0.007,-21.039 17.048,-38.078 38.088,-38.087 l 0,0 h 22.216 c 10.521,0.009 19.038,8.522 19.042,19.042 l 0,0 v 19.045 6.349 57.13 c -0.002,5.43 -2.271,10.327 -5.915,13.794 l 0,0 c 7.591,7.969 12.251,18.758 12.255,30.64 l 0,0 c -0.009,24.545 -19.892,44.426 -44.435,44.434 l 0,0 c -24.546,-0.008 -44.425,-19.889 -44.433,-44.434 l 0,0 z m 44.434,-19.044 c -5.299,0.005 -9.978,2.112 -13.468,5.576 l 0,0 c -3.464,3.488 -5.57,8.167 -5.576,13.468 l 0,0 c 0.006,5.299 2.112,9.979 5.576,13.465 l 0,0 c 3.49,3.466 8.168,5.572 13.468,5.578 l 0,0 c 5.299,-0.006 9.978,-2.112 13.464,-5.578 l 0,0 c 3.468,-3.485 5.574,-8.166 5.58,-13.465 l 0,0 c -0.006,-5.3 -2.112,-9.98 -5.58,-13.468 l 0,0 c -3.486,-3.463 -8.165,-5.57 -13.464,-5.576 l 0,0 v -6.349 6.349 l 0,0 z m -98.382,-6.347 h 9.523 v -27.65 -10.203 c 0,-0.035 0,-0.071 0,-0.106 l 0,0 c 0,-0.041 0,-0.083 0,-0.127 l 0,0 c 0,-0.424 -0.009,-0.954 -0.013,-1.616 l 0,0 c 0.009,-0.977 0,-2.201 0.249,-3.953 l 0,0 c 0.271,-1.716 0.786,-4.189 2.683,-6.974 l 0,0 c 1.24,-1.825 3.176,-3.589 5.273,-4.672 l 0,0 c 2.82,-1.481 5.535,-1.829 7.677,-1.83 l 0,0 h -12.698 -12.697 l 0.003,57.131 0,0 z m -136.478,0 9.522,-0.001 c 3.546,-0.005 6.64,-1.4 8.977,-3.717 l 0,0 c 2.318,-2.337 3.713,-5.431 3.718,-8.978 l 0,0 V 95.85 c -0.003,1.821 -0.246,4.001 -1.217,6.37 l 0,0 c -0.937,2.36 -2.775,4.748 -4.833,6.25 l 0,0 c -1.361,1.022 -2.74,1.692 -3.946,2.136 l 0,0 c -1.622,0.59 -2.953,0.815 -4.042,0.949 l 0,0 c -1.457,0.167 -2.524,0.167 -3.391,0.172 l 0,0 c -0.649,0 -1.183,-0.008 -1.614,-0.008 l 0,0 h -3.174 v 22.217 l 0,0 z m 212.655,-13.104 v -5.939 -6.348 12.287 l 0,0 z m 34.911,-12.287 V 57.763 51.414 38.719 h -15.87 c -3.548,0.004 -6.641,1.4 -8.978,3.719 l 0,0 c -2.318,2.337 -3.713,5.431 -3.717,8.977 l 0,0 v 57.131 h 28.565 l 0,-0.001 z"
   inkscape:connector-curvature="0" />

		<g
   id="g4043">
			<path
   id="path4045"
   d="m 335.413,127.588 c -17.529,0 -31.737,14.209 -31.737,31.739 0,17.529 14.208,31.738 31.737,31.738 17.529,0 31.739,-14.209 31.739,-31.738 0,-17.53 -14.21,-31.739 -31.739,-31.739 z m -22.207,-6.349 h 41.26 c 3.507,0 6.349,-2.842 6.349,-6.347 V 57.762 51.414 32.37 c 0,-3.506 -2.842,-6.348 -6.349,-6.348 H 332.25 c -14.024,0 -25.393,11.368 -25.393,25.392 v 63.479 c -0.001,3.504 2.841,6.346 6.349,6.346 z M 110.075,32.37 H 46.597 c -3.506,0 -6.348,2.843 -6.348,6.349 v 126.955 c 0,3.506 2.842,6.349 6.348,6.349 h 28.566 c 3.506,0 6.349,-2.843 6.349,-6.349 V 99.023 c 0,-3.506 2.841,-6.348 6.347,-6.348 h 3.173 12.696 c 3.505,0 6.348,-0.332 6.348,3.173 0,3.506 -2.843,3.174 -6.348,3.174 h -9.521 c -3.508,0 -6.349,2.842 -6.349,6.348 v 28.565 4.091 2.257 c 0,3.506 2.841,6.348 6.349,6.348 h 15.869 c 14.023,0 25.391,-11.367 25.391,-25.392 V 89.501 57.762 C 135.466,43.739 124.098,32.37 110.075,32.37 z m 82.522,31.74 h -44.435 c -3.506,0 -6.348,2.842 -6.348,6.347 v 15.871 c 0,3.506 2.842,6.348 6.348,6.348 h 12.695 6.348 9.523 c 3.506,0 6.348,2.842 6.348,6.348 v 15.87 c 0,3.505 0.33,6.347 -3.177,6.347 -3.504,0 -3.171,-2.842 -3.171,-6.347 v -9.522 c 0,-3.506 -2.842,-6.348 -6.348,-6.348 h -9.523 -10.438 -2.257 c -3.506,0 -6.348,2.842 -6.348,6.348 v 15.869 c 0,14.024 11.368,25.392 25.391,25.392 h 44.436 c 3.505,0 6.346,-2.842 6.346,-6.348 V 102.198 89.501 c 0,-14.022 -11.366,-25.391 -25.39,-25.391 z m 82.52,0 h -6.346 -19.044 -19.042 c -3.507,0 -6.349,2.842 -6.349,6.347 v 69.826 c 0,3.506 2.842,6.348 6.349,6.348 h 22.216 c 3.505,0 6.349,-2.842 6.349,-6.348 v -6.348 -27.648 -10.203 h 0.011 c -0.002,-0.08 -0.011,-0.156 -0.011,-0.235 0,-3.505 -0.333,-6.348 3.174,-6.348 3.505,0 3.172,2.608 3.172,6.114 0,0.079 -0.009,0.156 -0.011,0.234 h 0.011 v 18.01 19.842 6.349 c 0,3.506 2.841,6.582 6.349,6.582 h 22.218 c 3.502,0 6.347,-2.842 6.347,-6.348 V 89.501 c 0,-14.022 -11.369,-25.391 -25.393,-25.391 z"
   inkscape:connector-curvature="0"
   style="fill:#ffffff" />

		</g>

		<g
   id="g4047">
			<circle
   id="circle4049"
   r="38.087002"
   cy="159.327"
   cx="335.41299"
   sodipodi:cx="335.41299"
   sodipodi:cy="159.327"
   sodipodi:rx="38.087002"
   sodipodi:ry="38.087002"
   d="m 373.5,159.327 c 0,21.03487 -17.05214,38.087 -38.08701,38.087 -21.03487,0 -38.087,-17.05213 -38.087,-38.087 0,-21.03487 17.05213,-38.08701 38.087,-38.08701 21.03487,0 38.08701,17.05214 38.08701,38.08701 z" />

			<circle
   id="circle4051"
   r="33.325001"
   cy="159.327"
   cx="335.41299"
   sodipodi:cx="335.41299"
   sodipodi:cy="159.327"
   sodipodi:rx="33.325001"
   sodipodi:ry="33.325001"
   style="fill:#ffffff"
   d="m 368.738,159.327 c 0,18.40489 -14.92012,33.325 -33.32501,33.325 -18.40489,0 -33.325,-14.92011 -33.325,-33.325 0,-18.40489 14.92011,-33.325 33.325,-33.325 18.40489,0 33.32501,14.92011 33.32501,33.325 z" />

			<circle
   id="circle4053"
   r="23.804001"
   cy="159.327"
   cx="335.41299"
   sodipodi:cx="335.41299"
   sodipodi:cy="159.327"
   sodipodi:rx="23.804001"
   sodipodi:ry="23.804001"
   d="m 359.217,159.327 c 0,13.14658 -10.65742,23.804 -23.80401,23.804 -13.14658,0 -23.804,-10.65742 -23.804,-23.804 0,-13.14659 10.65742,-23.80401 23.804,-23.80401 13.14659,0 23.80401,10.65742 23.80401,23.80401 z" />

			<rect
   id="rect4055"
   height="72.292999"
   width="4.7620001"
   transform="matrix(0.966,0.2587,-0.2587,0.966,52.6399,-81.3521)"
   y="123.18"
   x="333.03201" />

			
				<rect
   id="rect4057"
   height="4.763"
   width="71.940002"
   transform="matrix(0.9659,0.2588,-0.2588,0.9659,52.6651,-81.3817)"
   y="156.94501"
   x="299.44299" />

			<path
   id="path4059"
   d="m 353.809,164.256 c -2.722,10.158 -13.166,16.187 -23.324,13.465 -10.159,-2.721 -16.189,-13.162 -13.466,-23.322 2.721,-10.162 13.163,-16.188 23.321,-13.467 10.161,2.722 16.19,13.164 13.469,23.324 z"
   inkscape:connector-curvature="0"
   style="fill:#ffffff" />

		</g>

	</g>

</g>
    </g>
  </g>
</svg>
